HIERARCHY
ROOT Hips
{
	OFFSET 0.00000 0.00000 0.00000
	CHANNELS 6 Xposition Yposition Zposition Yrotation Zrotation Xrotation 
	JOINT Lumbar
	{
		OFFSET 0 0 0
		CHANNELS 3 Zrotation Xrotation Yrotation
		JOINT Neck
		{
			OFFSET 0.00 0.2701 0.00
			CHANNELS 3 Zrotation Xrotation Yrotation
			End Site
			{
				OFFSET 0.00 0.1379 0.00
			}
		}
		JOINT RightShoulder
		{
			OFFSET 0.0119 0.2289 0.1181
			CHANNELS 3 Zrotation Xrotation Yrotation
			JOINT RightElbow
			{
				OFFSET 0.00 -0.1475 0.00
				CHANNELS 2 Zrotation Yrotation
				JOINT RightWrist
				{
					OFFSET 0.00 -0.1605 0.00
					CHANNELS 2 Zrotation Xrotation
					End Site
					{
						OFFSET 0.0040 -0.1068 0.0006
					}
				}
			}
		}
		JOINT LeftShoulder
		{
			OFFSET 0.0119 0.2289 -0.1181
			CHANNELS 3 Zrotation Xrotation Yrotation
			JOINT LeftElbow
			{
				OFFSET 0.00 -0.1475 0.00
				CHANNELS 2 Zrotation Yrotation
				JOINT LeftWrist
				{
					OFFSET 0.00 -0.1605 0.00
					CHANNELS 2 Zrotation Xrotation
					End Site
					{
						OFFSET 0.0040 -0.1068 -0.0006
					}
				}
			}
		}
	}
	JOINT RightHip
	{
		OFFSET 0.0316 -0.0424 0.0458
		CHANNELS 3 Zrotation Xrotation Yrotation
		JOINT RightKnee
		{
			OFFSET 0.00 -0.2438 0.00
			CHANNELS 1 Zrotation
			JOINT RightAnkle
			{
				OFFSET 0.00 -0.2449 0.00
				CHANNELS 3 Zrotation Xrotation Yrotation
				End Site
				{
					OFFSET 0.1237 -0.0542 0.0051
				}
			}
		}
	}
	JOINT LeftHip
	{
		OFFSET 0.0316 -0.0424 -0.0458
		CHANNELS 3 Zrotation Xrotation Yrotation
		JOINT LeftKnee
		{
			OFFSET 0.00 -0.2438 0.00
			CHANNELS 1 Zrotation
			JOINT LeftAnkle
			{
				OFFSET 0.00 -0.2449 0.00
				CHANNELS 3 Zrotation Xrotation Yrotation
				End Site
				{
					OFFSET 0.1237 -0.0542 -0.0051
				}
			}
		}
	}
}
MOTION
Frames: 33
Frame Time: 0.02
-0.19992 -0.0554 0.18584 20.60197 -16.69535 -2.56595 38.45742 2.1861 -7.30624 1.01706 -7.0662 -2.11994 65.2199 15.84045 27.52482 127.78248 108.77991 -39.74175 -6.3048 -44.18354 52.32183 -38.93817 99.37822 -102.63126 -17.76212 8.18811 29.06156 1.60491 -16.52713 -25.23482 -6.00258 -1.13806 -2.76741 56.82886 8.44741 1.61251 -47.91389 -10.804 3.56342 4.19071
-0.20127 -0.05561 0.18696 20.81463 -17.24435 -2.91105 38.57615 2.39916 -7.79212 1.9283 -7.89805 -2.11994 65.25548 15.83076 26.96741 128.15992 107.67983 -37.7581 -6.28357 -44.42037 52.366 -39.2446 99.38119 -106.67931 -19.59359 8.68942 29.82518 2.00491 -16.3009 -25.15937 -6.00232 -1.17982 -2.78663 57.7122 8.41821 0.95215 -47.8442 -10.90403 3.57423 4.20205
-0.20269 -0.05593 0.18811 21.06227 -17.84019 -3.29463 38.68153 2.66972 -8.15911 2.99099 -8.71525 -2.11994 65.10032 15.84113 26.48513 128.63036 106.66779 -35.74801 -6.29903 -44.35559 52.55295 -39.9044 99.31703 -113.47818 -22.98428 9.51166 30.66988 2.49825 -15.78363 -25.10073 -5.98966 -1.25327 -2.82048 58.7039 8.35245 0.15147 -47.83376 -11.01871 3.5906 4.21703
-0.20407 -0.0562 0.18925 21.29527 -18.41474 -3.66192 38.79629 2.9098 -8.56628 3.97279 -9.51172 -2.11994 65.0133 15.84384 25.95994 129.07014 105.63497 -33.73507 -6.31933 -44.43607 52.66888 -40.37466 99.29085 -118.53319 -25.39937 10.13475 31.4754 2.94346 -15.42822 -25.035 -5.98329 -1.30978 -2.84652 59.6458 8.30919 -0.57179 -47.79669 -11.1242 3.6038 4.22986
-0.20548 -0.05646 0.19038 21.52655 -18.99312 -4.02515 38.89812 3.16922 -9.03682 5.00846 -10.43199 -2.11994 65.00648 15.8401 25.47472 129.46681 104.47439 -31.75152 -6.24619 -44.49441 52.80594 -40.95462 99.23454 -125.5362 -28.86071 10.96772 32.29468 3.41214 -14.95201 -24.96658 -5.97447 -1.37681 -2.87736 60.59615 8.24045 -1.35214 -47.75894 -11.24103 3.61951 4.24475
-0.20685 -0.05678 0.19154 21.76779 -19.57308 -4.40578 39.0233 3.40155 -9.34511 5.9668 -11.08641 -2.11994 64.78598 15.8544 24.92137 129.97006 103.6496 -29.7325 -6.37953 -44.52208 52.93487 -41.39569 99.22474 -129.22223 -30.56269 11.44871 33.10294 3.85449 -14.65693 -24.90796 -5.9677 -1.42947 -2.9017 61.55203 8.21658 -2.0475 -47.7364 -11.33737 3.63138 4.25621
-0.20809 -0.05725 0.19277 22.03457 -20.14693 -4.82268 39.21608 3.54603 -9.23595 6.67382 -11.02664 -2.11994 64.02967 15.917 24.18192 130.78273 103.33722 -27.38485 -7.04665 -44.54256 53.00553 -41.35729 99.35696 -122.64665 -26.79766 10.84128 33.8619 4.19953 -14.93084 -24.87142 -5.96953 -1.43523 -2.9048 62.49954 8.32275 -2.46923 -47.74225 -11.37485 3.63157 4.25745
-0.20929 -0.05778 0.19403 22.30845 -20.71984 -5.25598 39.4326 3.66089 -8.96668 7.29737 -10.69565 -2.11994 63.06354 15.99653 23.36801 131.69218 103.42585 -25.04814 -7.92458 -44.53959 53.06442 -41.17129 99.53874 -112.7331 -21.25996 9.87795 34.606 4.51521 -15.39705 -24.84438 -5.97383 -1.42534 -2.90081 63.44729 8.47586 -2.80155 -47.76121 -11.39091 3.62767 4.25508
-0.21049 -0.05828 0.19528 22.57435 -21.29227 -5.6832 39.63835 3.78859 -8.76906 7.95934 -10.47744 -2.11994 62.18808 16.06616 22.5738 132.53194 103.60164 -22.86376 -8.72509 -44.54393 53.12926 -41.05953 99.69924 -104.64156 -16.69047 9.10327 35.35605 4.84563 -15.77602 -24.81356 -5.97701 -1.4223 -2.89988 64.39249 8.60946 -3.17772 -47.77341 -11.41584 3.62548 4.25426
-0.21175 -0.05879 0.1965 22.86173 -21.87107 -6.10615 39.84399 3.92119 -8.572 8.62513 -10.30389 -2.11994 61.32488 16.14576 21.83918 133.48287 102.67941 -20.01484 -9.4528 -44.55449 53.19432 -40.92577 99.85154 -95.35144 -11.48467 8.22327 36.11341 5.1736 -16.14376 -24.78094 -5.97973 -1.42154 -2.90018 65.35278 8.73437 -3.54483 -47.79074 -11.44487 3.62413 4.25394
-0.21288 -0.0593 0.19779 23.10541 -22.43473 -6.54118 40.05514 4.03548 -8.33736 9.26049 -9.97202 -2.11994 60.38992 16.20843 20.96521 134.2248 104.09256 -18.5522 -10.3773 -44.54741 53.25698 -40.80308 100.03437 -87.73579 -7.16707 7.47739 36.84963 5.49823 -16.58496 -24.75422 -5.98419 -1.41183 -2.89603 66.27915 8.88866 -3.9082 -47.80014 -11.46014 3.62 4.25171
-0.2137 -0.0598 0.19925 23.22804 -22.96487 -7.00681 40.28012 4.10863 -8.03799 9.83649 -9.2786 -2.11994 59.29999 16.2194 19.6958 134.35848 112.25116 -20.92041 -11.83071 -44.52573 53.29067 -40.7013 100.28197 -85.49294 -5.69419 7.15619 37.5414 5.82225 -17.17771 -24.74047 -5.99251 -1.38162 -2.88143 67.11974 9.11588 -4.27813 -47.78035 -11.44195 3.60896 4.2448
-0.21439 -0.06029 0.20078 23.30607 -23.4778 -7.48338 40.5089 4.16362 -7.70707 10.38285 -8.43406 -2.11994 58.1481 16.21281 18.29447 134.27932 122.67243 -24.67973 -13.46724 -44.48462 53.32529 -40.62052 100.5599 -85.04505 -5.17412 6.98502 38.20974 6.14301 -17.83994 -24.73242 -6.00261 -1.34272 -2.86253 67.92372 9.37063 -4.64717 -47.75249 -11.41067 3.59529 4.23613
-0.21512 -0.06078 0.20227 23.40333 -23.9934 -7.95425 40.73328 4.22523 -7.39108 10.93965 -7.65198 -2.11994 57.0302 16.21472 16.97116 134.30211 131.79808 -27.80227 -14.99609 -44.43355 53.37664 -40.56093 100.82961 -83.81189 -4.2404 6.76728 38.88204 6.46409 -18.47464 -24.7223 -6.01217 -1.30737 -2.84546 68.73917 9.61078 -5.01978 -47.7308 -11.38575 3.58297 4.22847
-0.21591 -0.06128 0.20377 23.50497 -24.53177 -8.42975 40.9704 4.2929 -7.06633 11.50778 -6.88441 -2.11994 55.87801 16.21504 15.566 134.3066 142.06506 -30.95598 -16.6378 -44.45527 53.35956 -40.37494 101.0791 -82.35386 -3.17369 6.45327 39.58341 6.78987 -19.09895 -24.71031 -6.02066 -1.27314 -2.82866 69.57815 9.86134 -5.37782 -47.69941 -11.35841 3.56988 4.21985
-0.21655 -0.06177 0.20528 23.58713 -25.01737 -8.89676 41.18077 4.34382 -6.75519 12.04464 -6.0571 -2.11994 54.78807 16.21425 14.30474 134.29702 150.48864 -34.36063 -18.08241 -44.32802 53.47995 -40.4487 101.37528 -81.81043 -2.62109 6.371 40.21722 7.10451 -19.75872 -24.70345 -6.03179 -1.23475 -2.81037 70.35735 10.0962 -5.76485 -47.68565 -11.33322 3.55779 4.21281
-0.21682 -0.06225 0.20683 23.62357 -25.37212 -9.34772 41.32315 4.35467 -6.48374 12.51672 -5.0795 -2.11994 53.86337 16.21475 13.4407 134.30295 153.24969 -38.24057 -18.96032 -43.7334 54.0274 -41.32722 101.80996 -83.57201 -3.3696 6.9736 40.68405 7.39701 -20.5001 -24.7094 -6.04962 -1.18684 -2.78901 70.99744 10.28002 -6.25236 -47.72655 -11.31801 3.54935 4.21105
-0.21693 -0.06272 0.20839 23.64245 -25.67236 -9.78757 41.43712 4.3491 -6.22899 12.95588 -4.05294 -2.11994 53.00906 16.21461 12.73215 134.30113 154.07858 -42.30147 -19.62834 -42.99963 54.70525 -42.45194 102.28723 -86.17253 -4.5929 7.7929 41.08117 7.67701 -21.27313 -24.72027 -6.07005 -1.13518 -2.76636 71.57526 10.44676 -6.76595 -47.78461 -11.30543 3.54199 4.21088
-0.21711 -0.0632 0.20993 23.67121 -25.99058 -10.22611 41.55945 4.35005 -5.97099 13.4014 -3.06424 -2.11994 52.13729 16.21461 11.97442 134.3009 155.80269 -46.19976 -20.37669 -42.37134 55.29096 -43.40126 102.73354 -88.25606 -5.52873 8.45842 41.50121 7.95787 -22.03101 -24.72884 -6.08942 -1.08536 -2.74432 72.17064 10.6221 -7.25449 -47.83219 -11.29115 3.53401 4.20969
-0.2173 -0.06369 0.21152 23.6904 -26.33689 -10.69283 41.70097 4.35435 -5.69322 13.88297 -2.00246 -2.11994 51.19995 16.21467 11.12257 134.30158 157.53507 -50.48841 -21.19502 -41.56974 56.0116 -44.61077 103.22968 -90.95351 -6.78737 9.35351 41.95747 8.25934 -22.79708 -24.73789 -6.10842 -1.03449 -2.72193 72.81081 10.79611 -7.79777 -47.89102 -11.27833 3.52646 4.20968
-0.21744 -0.06414 0.21302 23.72591 -26.61193 -11.0969 41.79592 4.34797 -5.46131 14.281 -1.08547 -2.11994 50.41917 16.21465 10.50388 134.30115 158.76008 -53.98572 -21.81547 -41.08915 56.48708 -45.34735 103.63208 -92.57311 -7.48929 9.83115 42.32196 8.51447 -23.54968 -24.747 -6.12867 -0.98523 -2.70013 73.34245 10.96695 -8.23435 -47.93034 -11.26354 3.51833 4.20766
-0.21747 -0.06451 0.21425 23.81178 -26.70383 -11.34011 41.76705 4.31648 -5.3499 14.46508 -0.56314 -2.11994 50.03521 16.21471 10.50421 134.30131 159.05712 -55.26833 -21.93788 -41.59388 56.20964 -44.6207 103.76208 -90.79056 -6.40219 9.00428 42.45048 8.64843 -24.28175 -24.75548 -6.15258 -0.93985 -2.67953 73.59701 11.14579 -8.35939 -47.91407 -11.23999 3.50778 4.19907
-0.21745 -0.06484 0.21537 23.91511 -26.72576 -11.51863 41.69246 4.27474 -5.28459 14.56458 -0.19246 -2.11994 49.81128 16.21459 10.73137 134.30129 158.89721 -55.73551 -21.86774 -42.41648 55.68797 -43.42477 103.79672 -87.92299 -4.75634 7.76556 42.48892 8.73528 -24.99388 -24.76385 -6.17748 -0.8966 -2.65977 73.74296 11.31937 -8.37739 -47.87738 -11.21466 3.49651 4.18842
-0.21746 -0.06518 0.21653 24.00957 -26.77979 -11.72077 41.64046 4.23767 -5.19973 14.69746 0.23591 -2.11994 49.52493 16.21478 10.84751 134.3013 158.93672 -56.56316 -21.88709 -43.04863 55.30855 -42.51086 103.87693 -85.69298 -3.45412 6.78194 42.5687 8.84157 -25.69927 -24.77181 -6.20141 -0.85329 -2.64012 73.93444 11.48719 -8.45226 -47.84814 -11.19234 3.48618 4.17929
-0.21746 -0.06556 0.21775 24.10578 -26.83126 -11.94774 41.58069 4.20036 -5.10964 14.85121 0.71448 -2.11994 49.19274 16.21474 11.00516 134.30131 158.95128 -57.4531 -21.8919 -43.86192 54.80674 -41.327 103.94918 -82.8992 -1.80181 5.52726 42.64507 8.95667 -26.4741 -24.78141 -6.22772 -0.80574 -2.61825 74.14131 11.68958 -8.49638 -47.82625 -11.16196 3.47409 4.16825
-0.21745 -0.06583 0.21882 24.20466 -26.87135 -12.10673 41.52552 4.16081 -5.04106 14.94098 1.05061 -2.11994 48.9991 16.21421 11.12484 134.30119 158.92643 -58.00155 -21.88267 -44.38547 54.49385 -40.57607 104.01483 -80.99108 -0.72529 4.72638 42.70711 9.0412 -27.09716 -24.78811 -6.24914 -0.76794 -2.60136 74.28934 11.81803 -8.57493 -47.78519 -11.14646 3.4645 4.16007
-0.21742 -0.06581 0.2196 24.29063 -26.90443 -12.10299 41.50416 4.12199 -5.02159 14.88195 1.04114 -2.11994 49.10011 16.21587 11.11139 134.30161 158.94893 -57.9206 -21.88948 -43.9427 54.81618 -41.26143 104.08491 -81.96045 -1.49697 5.36806 42.76036 9.06262 -27.32257 -24.78237 -6.25792 -0.75346 -2.59668 74.31631 11.75121 -8.80655 -47.6853 -11.18507 3.47049 4.16542
-0.21738 -0.06566 0.22023 24.38209 -26.9274 -12.0315 41.48743 4.08049 -5.02185 14.76012 0.89194 -2.11994 49.34537 16.21327 11.0452 134.30086 158.92986 -57.49097 -21.88559 -43.21375 55.32652 -42.37481 104.15153 -83.8253 -2.84329 6.46502 42.80116 9.05283 -27.39281 -24.77501 -6.26157 -0.74933 -2.59724 74.2848 11.6088 -9.06973 -47.56838 -11.23647 3.4775 4.1728
-0.21733 -0.06556 0.22091 24.48118 -26.95049 -11.985 41.46208 4.03744 -5.01245 14.66267 0.79871 -2.11994 49.55423 16.2143 10.9856 134.30136 158.9342 -57.15877 -21.8861 -42.6756 55.71464 -43.20715 104.21995 -85.16379 -3.8429 7.29165 42.84209 9.05137 -27.52287 -24.77069 -6.26671 -0.74252 -2.5963 74.27136 11.49616 -9.29838 -47.46687 -11.27356 3.47835 4.17581
-0.21732 -0.06552 0.22168 24.53674 -26.98994 -11.96043 41.46213 4.00583 -5.00791 14.58042 0.7295 -2.11994 49.63919 16.22101 11.01084 134.30277 158.97977 -57.10013 -21.89316 -41.89542 56.24896 -44.38478 104.28414 -86.95999 -5.18005 8.36339 42.90259 9.07423 -27.69684 -24.75468 -6.27517 -0.72724 -2.59168 74.29231 11.40283 -9.61146 -47.33399 -11.34595 3.50291 4.19308
-0.21723 -0.0653 0.2222 24.68575 -26.99386 -11.87529 41.41163 3.94975 -4.99694 14.45192 0.58219 -2.11994 50.02248 16.1988 10.83952 134.29707 158.83862 -56.34406 -21.87222 -41.54296 56.52736 -44.95571 104.35749 -88.04093 -5.96351 9.04864 42.92127 9.03804 -27.74349 -24.76509 -6.2758 -0.73203 -2.59596 74.2263 11.25118 -9.7539 -47.26052 -11.34853 3.47876 4.18143
-0.21696 -0.06469 0.22215 25.07707 -26.9026 -11.63704 41.21578 3.8282 -4.9667 14.21795 0.2271 -2.11994 51.1266 16.23493 10.17718 134.30753 159.06226 -54.24696 -21.90506 -42.47686 56.04857 -43.70837 104.45836 -86.83281 -5.03095 8.46275 42.82288 8.85985 -27.4706 -24.82966 -6.25355 -0.7897 -2.62349 73.95857 10.95894 -9.44971 -47.37147 -11.14982 3.31598 4.08692
-0.21661 -0.06389 0.22184 25.56499 -26.77637 -11.34121 40.97053 3.68203 -4.92868 13.93853 -0.19595 -2.11994 52.53931 16.21628 9.31255 134.29968 158.9632 -51.3865 -21.89025 -43.84245 55.30873 -41.84589 104.56904 -84.89657 -3.53316 7.4891 42.68481 8.62069 -27.0766 -24.92575 -6.22418 -0.86715 -2.65979 73.60086 10.61039 -8.96764 -47.53836 -10.88162 3.10473 3.96365
